<svg width="195" height="44" viewBox="0 0 195 44" fill="none" xmlns="http://www.w3.org/2000/svg">
<g opacity="0.85">
<path d="M40.4355 4.26318H41.0607L48.6087 13.5098V5.34148C48.6087 4.68239 48.9698 4.26318 49.532 4.26318H50.4067V17.6412H49.767L42.2311 8.39219V16.5605C42.2311 17.2196 41.8725 17.6388 41.3248 17.6388H40.4355V4.26318Z" fill="#002E70"/>
<path d="M52.4023 10.9509C52.4023 7.13205 54.8255 3.98926 58.2954 3.98926C61.7653 3.98926 64.2175 7.13932 64.2175 10.9509C64.2175 14.7625 61.7798 17.915 58.2954 17.915C54.8109 17.915 52.4023 14.7891 52.4023 10.9509ZM58.2954 16.1049C60.6555 16.1049 62.4147 13.7666 62.4147 10.9509C62.4147 8.19096 60.6482 5.79691 58.2954 5.79691C55.9425 5.79691 54.2003 8.174 54.2003 10.9509C54.2003 13.7278 55.945 16.1049 58.2954 16.1049Z" fill="#002E70"/>
<path d="M64.3574 4.2632H65.6368C65.8711 4.26208 66.0991 4.33847 66.2854 4.48048C66.4716 4.62248 66.6057 4.82213 66.6667 5.04829L69.8725 13.7473L73.1388 5.04829C73.1988 4.82432 73.3306 4.62622 73.514 4.4844C73.6974 4.34257 73.9223 4.26486 74.1541 4.2632H75.3899L70.1366 17.6413H69.6059L64.3574 4.2632Z" fill="#002E70"/>
<path d="M79.4245 4.26318H79.9891L85.6786 17.6412H84.3967C84.1728 17.6402 83.9546 17.5697 83.7724 17.4395C83.5901 17.3093 83.4527 17.1258 83.379 16.9143L82.6521 15.1067H76.7833L76.0345 16.9143C75.9624 17.1268 75.8254 17.3113 75.6428 17.4418C75.4602 17.5722 75.2412 17.642 75.0168 17.6412H73.752L79.4245 4.26318ZM82.0681 13.5292L79.7056 7.64344L77.3624 13.5292H82.0681Z" fill="#002E70"/>
</g>
<path d="M39.4121 23.4224H47.4617V24.1711C47.4617 24.8108 47.1491 25.1767 46.587 25.1767H41.2101V29.3251H46.1339V30.052C46.1339 30.7087 45.8213 31.0746 45.2591 31.0746H41.2101V35.0582H46.57C47.1176 35.0582 47.4617 35.4798 47.4617 36.1001V36.8125H39.4121V23.4224Z" fill="#002E70"/>
<path d="M50.2734 23.4224H51.1942C51.7273 23.4224 52.0859 23.8246 52.0859 24.4643V35.0461H57.0412C57.5719 35.0461 57.9329 35.4677 57.9329 36.088V36.8004H50.2734V23.4224Z" fill="#002E70"/>
<path d="M60.6367 35.6858V23.4224H61.543C62.0761 23.4224 62.4347 23.8246 62.4347 24.4643V36.8004H61.5284C60.9663 36.8004 60.6367 36.3982 60.6367 35.6858Z" fill="#002E70"/>
<path d="M68.2788 25.1767H64.9082V24.4643C64.9082 23.8246 65.2523 23.4224 65.7999 23.4224H73.4885V24.1348C73.4885 24.7575 73.1299 25.1767 72.5992 25.1767H70.0767V35.7609C70.0767 36.3982 69.7181 36.8004 69.1874 36.8004H68.2788V25.1767Z" fill="#002E70"/>
<path d="M75.9688 23.4224H84.0184V24.1711C84.0184 24.8108 83.7058 25.1767 83.1436 25.1767H77.7667V29.3251H82.6905V30.052C82.6905 30.7087 82.3779 31.0746 81.8133 31.0746H77.7667V35.0582H83.1267C83.6743 35.0582 84.0184 35.4798 84.0184 36.1001V36.8125H75.9688V23.4224Z" fill="#002E70"/>
<path opacity="0.85" d="M16.4901 -8.21831e-05L0.00195312 16.488L16.4901 32.9762L32.9782 16.488L16.4901 -8.21831e-05Z" fill="#1F62B5"/>
<path fill-rule="evenodd" clip-rule="evenodd" d="M5.74805 22.2351V10.7398L16.4898 0.000488281V32.9768L5.74805 22.2351Z" fill="url(#paint0_linear_237_59)"/>
<mask id="mask0_237_59" style="mask-type:luminance" maskUnits="userSpaceOnUse" x="0" y="0" width="33" height="33">
<path d="M0 16.4875L16.4894 0.0102539L32.9666 16.4875L16.4894 32.9647L0.0121164 16.4875H0ZM0.702706 16.4875L16.4869 32.2741L32.2736 16.4875L16.4894 0.700838L0.702706 16.4875Z" fill="white"/>
</mask>
<g mask="url(#mask0_237_59)">
<path opacity="0.5" d="M32.9763 0.000488281H0V32.9768H32.9763V0.000488281Z" fill="#002E70"/>
</g>
<mask id="mask1_237_59" style="mask-type:luminance" maskUnits="userSpaceOnUse" x="0" y="0" width="33" height="33">
<path d="M0 16.4875L16.4894 0.0102539L32.9666 16.4875L16.4894 32.9647L0.0121164 16.4875H0ZM0.702706 16.4875L16.4869 32.2741L32.2736 16.4875L16.4894 0.700838L0.702706 16.4875Z" fill="white"/>
</mask>
<g mask="url(#mask1_237_59)">
<path fill-rule="evenodd" clip-rule="evenodd" d="M3.01959 17.1397C3.67215 17.1407 4.31034 16.948 4.85336 16.5861C5.39638 16.2242 5.81983 15.7093 6.07011 15.1067C6.32039 14.504 6.38625 13.8406 6.25935 13.2005C6.13245 12.5604 5.8185 11.9723 5.35724 11.5107C4.89597 11.0491 4.30813 10.7347 3.66812 10.6074C3.0281 10.48 2.36468 10.5454 1.76184 10.7952C1.15899 11.0451 0.643812 11.4681 0.281514 12.0109C-0.0807835 12.5536 -0.273915 13.1917 -0.273437 13.8442C-0.270883 14.717 0.0768022 15.5534 0.693742 16.1708C1.31068 16.7882 2.14679 17.1365 3.01959 17.1397Z" fill="url(#paint1_radial_237_59)"/>
<path fill-rule="evenodd" clip-rule="evenodd" d="M20.4502 7.20732C21.1025 7.20732 21.7401 7.0139 22.2824 6.65153C22.8247 6.28915 23.2474 5.7741 23.497 5.17149C23.7467 4.56888 23.812 3.90579 23.6847 3.26607C23.5575 2.62634 23.2434 2.03872 22.7822 1.5775C22.3209 1.11629 21.7333 0.802189 21.0936 0.67494C20.4539 0.547691 19.7908 0.613004 19.1882 0.862613C18.5856 1.11222 18.0705 1.53492 17.7081 2.07725C17.3458 2.61958 17.1523 3.25719 17.1523 3.90945C17.1536 4.78371 17.5015 5.62178 18.1197 6.23998C18.7379 6.85817 19.576 7.20604 20.4502 7.20732Z" fill="url(#paint2_radial_237_59)"/>
<path fill-rule="evenodd" clip-rule="evenodd" d="M32.0674 20.7019C32.7197 20.7019 33.3573 20.5085 33.8996 20.1462C34.4419 19.7838 34.8646 19.2687 35.1142 18.6661C35.3638 18.0635 35.4292 17.4004 35.3019 16.7607C35.1747 16.121 34.8606 15.5333 34.3993 15.0721C33.9381 14.6109 33.3505 14.2968 32.7108 14.1696C32.0711 14.0423 31.408 14.1076 30.8054 14.3572C30.2028 14.6068 29.6877 15.0295 29.3253 15.5719C28.9629 16.1142 28.7695 16.7518 28.7695 17.4041C28.7715 18.2781 29.1195 19.1158 29.7376 19.7339C30.3556 20.352 31.1933 20.7 32.0674 20.7019Z" fill="url(#paint3_radial_237_59)"/>
</g>
<path opacity="0.85" d="M16.4901 5.27409L0.00195312 21.7622L16.4901 38.2503L32.9782 21.7622L16.4901 5.27409Z" fill="#37ACD5"/>
<path fill-rule="evenodd" clip-rule="evenodd" d="M5.74805 27.5105V16.0152L16.4898 5.27588V38.2497L5.74805 27.5105Z" fill="url(#paint4_linear_237_59)"/>
<mask id="mask2_237_59" style="mask-type:luminance" maskUnits="userSpaceOnUse" x="0" y="5" width="33" height="34">
<path d="M0 21.76L16.4894 5.28271L32.9666 21.76L16.4894 38.2493L0.0121164 21.76H0ZM0.702706 21.76L16.4869 37.5466L32.2736 21.76L16.4894 5.97573L0.702706 21.76Z" fill="white"/>
</mask>
<g mask="url(#mask2_237_59)">
<path opacity="0.5" d="M32.9763 5.27588H0V38.2522H32.9763V5.27588Z" fill="#002E70"/>
</g>
<mask id="mask3_237_59" style="mask-type:luminance" maskUnits="userSpaceOnUse" x="0" y="5" width="33" height="34">
<path d="M0 21.76L16.4894 5.28271L32.9666 21.76L16.4894 38.2493L0.0121164 21.76H0ZM0.702706 21.76L16.4869 37.5466L32.2736 21.76L16.4894 5.97573L0.702706 21.76Z" fill="white"/>
</mask>
<g mask="url(#mask3_237_59)">
<path fill-rule="evenodd" clip-rule="evenodd" d="M7.62404 18.0142C8.2763 18.0142 8.91391 17.8208 9.45624 17.4584C9.99858 17.096 10.4213 16.581 10.6709 15.9784C10.9205 15.3758 10.9858 14.7127 10.8585 14.073C10.7313 13.4332 10.4172 12.8456 9.95599 12.3844C9.49477 11.9232 8.90715 11.6091 8.26743 11.4818C7.6277 11.3546 6.96461 11.4199 6.362 11.6695C5.7594 11.9191 5.24434 12.3418 4.88196 12.8841C4.51959 13.4265 4.32617 14.0641 4.32617 14.7163C4.32809 15.5904 4.67616 16.4281 5.29422 17.0462C5.91227 17.6642 6.74998 18.0123 7.62404 18.0142Z" fill="url(#paint5_radial_237_59)"/>
<path d="M33.0331 19.5996C33.3249 17.8018 32.104 16.1078 30.3062 15.816C28.5084 15.5241 26.8144 16.745 26.5225 18.5428C26.2307 20.3407 27.4516 22.0347 29.2494 22.3265C31.0472 22.6183 32.7412 21.3975 33.0331 19.5996Z" fill="url(#paint6_radial_237_59)"/>
<path fill-rule="evenodd" clip-rule="evenodd" d="M30.8643 26.597C31.5165 26.597 32.1541 26.4035 32.6965 26.0412C33.2388 25.6788 33.6615 25.1637 33.9111 24.5611C34.1607 23.9585 34.226 23.2954 34.0988 22.6557C33.9715 22.016 33.6574 21.4284 33.1962 20.9671C32.735 20.5059 32.1474 20.1918 31.5077 20.0646C30.8679 19.9373 30.2048 20.0026 29.6022 20.2523C28.9996 20.5019 28.4846 20.9246 28.1222 21.4669C27.7598 22.0092 27.5664 22.6468 27.5664 23.2991C27.5683 24.1732 27.9164 25.0109 28.5345 25.6289C29.1525 26.247 29.9902 26.595 30.8643 26.597Z" fill="url(#paint7_radial_237_59)"/>
</g>
<path opacity="0.85" d="M16.4901 10.548L0.00195312 27.0361L16.4901 43.5242L32.9782 27.0361L16.4901 10.548Z" fill="#49EBDD"/>
<path fill-rule="evenodd" clip-rule="evenodd" d="M5.74805 32.7829V21.29L16.4898 10.5483V43.5246L5.74805 32.7829Z" fill="url(#paint8_linear_237_59)"/>
<mask id="mask4_237_59" style="mask-type:luminance" maskUnits="userSpaceOnUse" x="0" y="10" width="33" height="34">
<path d="M0 27.0353L16.4894 10.5581L32.9666 27.0353L16.4894 43.5126L0.0121164 27.0353H0ZM0.702706 27.0353L16.4869 42.822L32.2736 27.0353L16.4894 11.2487L0.702706 27.0353Z" fill="white"/>
</mask>
<g mask="url(#mask4_237_59)">
<path opacity="0.5" d="M32.9763 10.5483H0V43.5246H32.9763V10.5483Z" fill="#002E70"/>
</g>
<mask id="mask5_237_59" style="mask-type:luminance" maskUnits="userSpaceOnUse" x="0" y="10" width="33" height="34">
<path d="M0 27.0353L16.4894 10.5581L32.9666 27.0353L16.4894 43.5126L0.0121164 27.0353H0ZM0.702706 27.0353L16.4869 42.822L32.2736 27.0353L16.4894 11.2487L0.702706 27.0353Z" fill="white"/>
</mask>
<g mask="url(#mask5_237_59)">
<path d="M8.07686 24.1177C9.03448 22.5683 8.55482 20.5361 7.00552 19.5785C5.45622 18.6209 3.42396 19.1005 2.46634 20.6498C1.50872 22.1991 1.98838 24.2314 3.53769 25.189C5.08699 26.1466 7.11925 25.667 8.07686 24.1177Z" fill="url(#paint9_radial_237_59)"/>
<path fill-rule="evenodd" clip-rule="evenodd" d="M24.2256 38.0633C24.8779 38.0633 25.5155 37.8699 26.0578 37.5075C26.6001 37.1451 27.0228 36.6301 27.2724 36.0274C27.5221 35.4248 27.5874 34.7617 27.4601 34.122C27.3329 33.4823 27.0188 32.8947 26.5576 32.4335C26.0963 31.9722 25.5087 31.6581 24.869 31.5309C24.2293 31.4037 23.5662 31.469 22.9636 31.7186C22.361 31.9682 21.8459 32.3909 21.4835 32.9332C21.1212 33.4755 20.9277 34.1132 20.9277 34.7654C20.9297 35.6395 21.2777 36.4772 21.8958 37.0952C22.5138 37.7133 23.3515 38.0614 24.2256 38.0633Z" fill="url(#paint10_radial_237_59)"/>
</g>
<path d="M111.16 11.0045V15.1656H115.136V15.7053H111.16V19.8949H115.562V20.4346H110.521V10.4648H115.562V11.0045H111.16Z" fill="#002E70"/>
<path d="M120.067 20.5482C119.206 20.5482 118.5 20.3588 117.951 19.9801C117.412 19.6014 117.109 19.0617 117.042 18.3611H117.696C117.743 18.8629 117.97 19.2605 118.377 19.554C118.794 19.8475 119.357 19.9943 120.067 19.9943C120.654 19.9943 121.118 19.8475 121.459 19.554C121.809 19.2511 121.985 18.8818 121.985 18.4463C121.985 18.1433 121.89 17.8972 121.701 17.7078C121.521 17.509 121.293 17.3575 121.019 17.2533C120.744 17.1492 120.37 17.0356 119.897 16.9125C119.329 16.761 118.87 16.6142 118.519 16.4722C118.169 16.3207 117.871 16.0982 117.625 15.8047C117.378 15.5112 117.255 15.1183 117.255 14.626C117.255 14.2662 117.364 13.9348 117.582 13.6318C117.8 13.3194 118.103 13.0732 118.491 12.8933C118.879 12.7134 119.319 12.6235 119.812 12.6235C120.617 12.6235 121.265 12.8271 121.757 13.2342C122.259 13.6318 122.529 14.1857 122.567 14.8958H121.928C121.899 14.3845 121.701 13.9679 121.331 13.646C120.962 13.3241 120.451 13.1632 119.798 13.1632C119.248 13.1632 118.794 13.3052 118.434 13.5892C118.074 13.8733 117.894 14.2188 117.894 14.626C117.894 14.9858 117.994 15.2793 118.193 15.5065C118.401 15.7243 118.652 15.8947 118.945 16.0178C119.248 16.1314 119.646 16.2545 120.138 16.387C120.678 16.529 121.109 16.6711 121.431 16.8131C121.762 16.9456 122.041 17.1444 122.269 17.4096C122.496 17.6652 122.61 18.0108 122.61 18.4463C122.61 18.8439 122.501 19.2037 122.283 19.5256C122.065 19.8475 121.762 20.0984 121.374 20.2783C120.986 20.4582 120.55 20.5482 120.067 20.5482Z" fill="#002E70"/>
<path d="M124.159 16.5716C124.159 15.7763 124.315 15.0804 124.627 14.484C124.949 13.8875 125.389 13.4283 125.948 13.1064C126.516 12.7845 127.16 12.6235 127.879 12.6235C128.694 12.6235 129.385 12.8223 129.953 13.22C130.53 13.6176 130.928 14.1242 131.146 14.7396V12.7229H131.785V24.0703H131.146V18.4179C130.928 19.0333 130.53 19.5446 129.953 19.9517C129.375 20.3494 128.679 20.5482 127.865 20.5482C127.155 20.5482 126.516 20.3872 125.948 20.0653C125.389 19.7339 124.949 19.27 124.627 18.6735C124.315 18.0676 124.159 17.3669 124.159 16.5716ZM131.146 16.5716C131.146 15.8994 131.004 15.3077 130.72 14.7964C130.445 14.2757 130.067 13.878 129.584 13.6034C129.101 13.3194 128.561 13.1774 127.965 13.1774C127.34 13.1774 126.791 13.3147 126.317 13.5892C125.844 13.8543 125.475 14.2425 125.209 14.7538C124.944 15.2651 124.812 15.871 124.812 16.5716C124.812 17.2723 124.944 17.8782 125.209 18.3895C125.475 18.9008 125.844 19.2937 126.317 19.5682C126.8 19.8428 127.349 19.9801 127.965 19.9801C128.561 19.9801 129.101 19.8428 129.584 19.5682C130.076 19.2842 130.459 18.8866 130.734 18.3753C131.009 17.8545 131.146 17.2533 131.146 16.5716Z" fill="#002E70"/>
<path d="M140.631 12.7229V20.4346H139.992V18.7587C139.774 19.3457 139.409 19.7955 138.898 20.1079C138.396 20.4109 137.819 20.5624 137.165 20.5624C136.247 20.5624 135.494 20.2831 134.907 19.7245C134.33 19.1564 134.041 18.3185 134.041 17.2107V12.7229H134.666V17.1681C134.666 18.0865 134.898 18.7919 135.362 19.2842C135.826 19.7671 136.455 20.0085 137.251 20.0085C138.084 20.0085 138.747 19.7434 139.239 19.2132C139.741 18.683 139.992 17.8972 139.992 16.8557V12.7229H140.631Z" fill="#002E70"/>
<path d="M142.563 16.5716C142.563 15.7763 142.719 15.0804 143.031 14.484C143.353 13.8875 143.794 13.4283 144.352 13.1064C144.92 12.7845 145.564 12.6235 146.284 12.6235C147.098 12.6235 147.789 12.8223 148.357 13.22C148.925 13.6176 149.323 14.1242 149.55 14.7396V12.7229H150.189V20.4346H149.55V18.4037C149.323 19.0286 148.921 19.5446 148.343 19.9517C147.775 20.3494 147.088 20.5482 146.284 20.5482C145.564 20.5482 144.92 20.3872 144.352 20.0653C143.794 19.7339 143.353 19.27 143.031 18.6735C142.719 18.0676 142.563 17.3669 142.563 16.5716ZM149.55 16.5716C149.55 15.8994 149.408 15.3077 149.124 14.7964C148.85 14.2757 148.471 13.878 147.988 13.6034C147.505 13.3194 146.965 13.1774 146.369 13.1774C145.744 13.1774 145.195 13.3147 144.722 13.5892C144.248 13.8543 143.879 14.2425 143.614 14.7538C143.349 15.2651 143.216 15.871 143.216 16.5716C143.216 17.2723 143.349 17.8782 143.614 18.3895C143.879 18.9008 144.248 19.2937 144.722 19.5682C145.204 19.8428 145.754 19.9801 146.369 19.9801C146.965 19.9801 147.505 19.8428 147.988 19.5682C148.48 19.2842 148.864 18.8866 149.138 18.3753C149.413 17.8545 149.55 17.2533 149.55 16.5716Z" fill="#002E70"/>
<path d="M153.155 14.3135C153.345 13.7455 153.681 13.3147 154.164 13.0212C154.647 12.7182 155.262 12.5667 156.01 12.5667V13.2342H155.797C155.039 13.2342 154.41 13.4519 153.908 13.8875C153.406 14.3135 153.155 15.0142 153.155 15.9894V20.4346H152.516V12.7229H153.155V14.3135Z" fill="#002E70"/>
<path d="M157.084 16.5716C157.084 15.7763 157.24 15.0804 157.552 14.484C157.874 13.8875 158.315 13.4283 158.873 13.1064C159.441 12.7845 160.085 12.6235 160.805 12.6235C161.59 12.6235 162.272 12.8223 162.85 13.22C163.427 13.6082 163.834 14.1147 164.071 14.7396V9.92513H164.71V20.4346H164.071V18.3895C163.844 19.0238 163.446 19.5446 162.878 19.9517C162.31 20.3494 161.619 20.5482 160.805 20.5482C160.085 20.5482 159.441 20.3872 158.873 20.0653C158.315 19.7339 157.874 19.27 157.552 18.6735C157.24 18.0676 157.084 17.3669 157.084 16.5716ZM164.071 16.5716C164.071 15.8994 163.929 15.3077 163.645 14.7964C163.37 14.2757 162.992 13.878 162.509 13.6034C162.026 13.3194 161.486 13.1774 160.89 13.1774C160.265 13.1774 159.716 13.3147 159.242 13.5892C158.769 13.8543 158.4 14.2425 158.135 14.7538C157.87 15.2651 157.737 15.871 157.737 16.5716C157.737 17.2723 157.87 17.8782 158.135 18.3895C158.4 18.9008 158.769 19.2937 159.242 19.5682C159.725 19.8428 160.274 19.9801 160.89 19.9801C161.486 19.9801 162.026 19.8428 162.509 19.5682C163.001 19.2842 163.385 18.8866 163.659 18.3753C163.934 17.8545 164.071 17.2533 164.071 16.5716Z" fill="#002E70"/>
<path d="M167.676 14.3135C167.866 13.7455 168.202 13.3147 168.685 13.0212C169.167 12.7182 169.783 12.5667 170.531 12.5667V13.2342H170.318C169.56 13.2342 168.931 13.4519 168.429 13.8875C167.927 14.3135 167.676 15.0142 167.676 15.9894V20.4346H167.037V12.7229H167.676V14.3135Z" fill="#002E70"/>
<path d="M172.329 11.0045C172.177 11.0045 172.05 10.9571 171.945 10.8625C171.841 10.7583 171.789 10.621 171.789 10.4506C171.789 10.2896 171.841 10.1571 171.945 10.053C172.05 9.9488 172.177 9.89673 172.329 9.89673C172.48 9.89673 172.608 9.9488 172.712 10.053C172.817 10.1571 172.869 10.2896 172.869 10.4506C172.869 10.621 172.817 10.7583 172.712 10.8625C172.608 10.9571 172.48 11.0045 172.329 11.0045ZM172.641 12.7229V20.4346H172.002V12.7229H172.641Z" fill="#002E70"/>
<path d="M174.587 16.5716C174.587 15.7763 174.743 15.0804 175.055 14.484C175.377 13.8875 175.817 13.4283 176.376 13.1064C176.944 12.7845 177.588 12.6235 178.307 12.6235C179.122 12.6235 179.813 12.8223 180.381 13.22C180.949 13.6176 181.347 14.1242 181.574 14.7396V12.7229H182.213V20.4346H181.574V18.4037C181.347 19.0286 180.944 19.5446 180.367 19.9517C179.799 20.3494 179.112 20.5482 178.307 20.5482C177.588 20.5482 176.944 20.3872 176.376 20.0653C175.817 19.7339 175.377 19.27 175.055 18.6735C174.743 18.0676 174.587 17.3669 174.587 16.5716ZM181.574 16.5716C181.574 15.8994 181.432 15.3077 181.148 14.7964C180.873 14.2757 180.494 13.878 180.012 13.6034C179.529 13.3194 178.989 13.1774 178.393 13.1774C177.768 13.1774 177.219 13.3147 176.745 13.5892C176.272 13.8543 175.903 14.2425 175.637 14.7538C175.372 15.2651 175.24 15.871 175.24 16.5716C175.24 17.2723 175.372 17.8782 175.637 18.3895C175.903 18.9008 176.272 19.2937 176.745 19.5682C177.228 19.8428 177.777 19.9801 178.393 19.9801C178.989 19.9801 179.529 19.8428 180.012 19.5682C180.504 19.2842 180.887 18.8866 181.162 18.3753C181.437 17.8545 181.574 17.2533 181.574 16.5716Z" fill="#002E70"/>
<path d="M187.11 20.5482C186.249 20.5482 185.544 20.3588 184.994 19.9801C184.455 19.6014 184.152 19.0617 184.085 18.3611H184.739C184.786 18.8629 185.013 19.2605 185.42 19.554C185.837 19.8475 186.4 19.9943 187.11 19.9943C187.698 19.9943 188.161 19.8475 188.502 19.554C188.853 19.2511 189.028 18.8818 189.028 18.4463C189.028 18.1433 188.933 17.8972 188.744 17.7078C188.564 17.509 188.337 17.3575 188.062 17.2533C187.787 17.1492 187.413 17.0356 186.94 16.9125C186.372 16.761 185.913 16.6142 185.562 16.4722C185.212 16.3207 184.914 16.0982 184.668 15.8047C184.422 15.5112 184.299 15.1183 184.299 14.626C184.299 14.2662 184.407 13.9348 184.625 13.6318C184.843 13.3194 185.146 13.0732 185.534 12.8933C185.922 12.7134 186.363 12.6235 186.855 12.6235C187.66 12.6235 188.308 12.8271 188.801 13.2342C189.302 13.6318 189.572 14.1857 189.61 14.8958H188.971C188.943 14.3845 188.744 13.9679 188.374 13.646C188.005 13.3241 187.494 13.1632 186.841 13.1632C186.292 13.1632 185.837 13.3052 185.477 13.5892C185.117 13.8733 184.938 14.2188 184.938 14.626C184.938 14.9858 185.037 15.2793 185.236 15.5065C185.444 15.7243 185.695 15.8947 185.989 16.0178C186.292 16.1314 186.689 16.2545 187.182 16.387C187.721 16.529 188.152 16.6711 188.474 16.8131C188.805 16.9456 189.085 17.1444 189.312 17.4096C189.539 17.6652 189.653 18.0108 189.653 18.4463C189.653 18.8439 189.544 19.2037 189.326 19.5256C189.108 19.8475 188.805 20.0984 188.417 20.2783C188.029 20.4582 187.593 20.5482 187.11 20.5482Z" fill="#002E70"/>
<path d="M117.465 33.1046C117.465 33.4455 117.456 33.7011 117.437 33.8715H110.776C110.795 34.5627 110.947 35.145 111.231 35.6184C111.515 36.0918 111.889 36.4468 112.353 36.6835C112.817 36.9202 113.323 37.0386 113.872 37.0386C114.63 37.0386 115.264 36.8539 115.775 36.4847C116.287 36.106 116.609 35.5947 116.741 34.9509H117.409C117.257 35.7367 116.869 36.3758 116.244 36.8681C115.619 37.351 114.829 37.5924 113.872 37.5924C113.153 37.5924 112.509 37.4315 111.941 37.1096C111.373 36.7877 110.928 36.3285 110.606 35.732C110.284 35.126 110.123 34.4207 110.123 33.6159C110.123 32.8111 110.279 32.1105 110.592 31.514C110.914 30.9175 111.359 30.4631 111.927 30.1506C112.495 29.8287 113.143 29.6678 113.872 29.6678C114.611 29.6678 115.25 29.8287 115.79 30.1506C116.339 30.4631 116.755 30.8844 117.039 31.4146C117.323 31.9353 117.465 32.4987 117.465 33.1046ZM116.826 33.3461C116.855 32.6644 116.732 32.0868 116.457 31.6134C116.192 31.14 115.827 30.7897 115.364 30.5625C114.9 30.3258 114.398 30.2074 113.858 30.2074C113.318 30.2074 112.817 30.3258 112.353 30.5625C111.898 30.7897 111.524 31.14 111.231 31.6134C110.947 32.0868 110.795 32.6644 110.776 33.3461H116.826Z" fill="#002E70"/>
<path d="M128.515 29.6109C129.395 29.6109 130.115 29.895 130.673 30.4631C131.232 31.0217 131.511 31.8549 131.511 32.9626V37.4788H130.886V33.0052C130.886 32.0868 130.664 31.3862 130.219 30.9033C129.783 30.411 129.182 30.1648 128.415 30.1648C127.62 30.1648 126.981 30.4394 126.498 30.9885C126.015 31.5377 125.774 32.333 125.774 33.3745V37.4788H125.149V33.0052C125.149 32.0868 124.926 31.3862 124.481 30.9033C124.046 30.411 123.444 30.1648 122.678 30.1648C121.882 30.1648 121.243 30.4394 120.76 30.9885C120.277 31.5377 120.036 32.333 120.036 33.3745V37.4788H119.397V29.7672H120.036V31.443C120.254 30.837 120.604 30.3826 121.087 30.0796C121.579 29.7672 122.143 29.6109 122.777 29.6109C123.478 29.6109 124.079 29.7956 124.581 30.1648C125.092 30.5246 125.442 31.0595 125.632 31.7696C125.811 31.0595 126.162 30.5246 126.682 30.1648C127.203 29.7956 127.814 29.6109 128.515 29.6109Z" fill="#002E70"/>
<path d="M143.44 34.9225H138.71L137.759 37.4788H137.063L140.727 27.7363H141.437L145.087 37.4788H144.391L143.44 34.9225ZM143.241 34.3828L141.082 28.5742L138.909 34.3828H143.241Z" fill="#002E70"/>
<path d="M147.33 26.9694V37.4788H146.691V26.9694H147.33Z" fill="#002E70"/>
<path d="M156.192 29.7672V37.4788H155.553V35.803C155.335 36.39 154.97 36.8397 154.459 37.1522C153.957 37.4551 153.38 37.6066 152.727 37.6066C151.808 37.6066 151.055 37.3273 150.468 36.7687C149.891 36.2006 149.602 35.3627 149.602 34.255V29.7672H150.227V34.2124C150.227 35.1308 150.459 35.8361 150.923 36.3285C151.387 36.8113 152.016 37.0528 152.812 37.0528C153.645 37.0528 154.308 36.7877 154.8 36.2575C155.302 35.7272 155.553 34.9414 155.553 33.8999V29.7672H156.192Z" fill="#002E70"/>
<path d="M167.639 29.6109C168.52 29.6109 169.239 29.895 169.798 30.4631C170.357 31.0217 170.636 31.8549 170.636 32.9626V37.4788H170.011V33.0052C170.011 32.0868 169.788 31.3862 169.343 30.9033C168.908 30.411 168.307 30.1648 167.54 30.1648C166.744 30.1648 166.105 30.4394 165.623 30.9885C165.14 31.5377 164.898 32.333 164.898 33.3745V37.4788H164.273V33.0052C164.273 32.0868 164.051 31.3862 163.606 30.9033C163.17 30.411 162.569 30.1648 161.802 30.1648C161.007 30.1648 160.368 30.4394 159.885 30.9885C159.402 31.5377 159.161 32.333 159.161 33.3745V37.4788H158.522V29.7672H159.161V31.443C159.378 30.837 159.729 30.3826 160.212 30.0796C160.704 29.7672 161.267 29.6109 161.902 29.6109C162.602 29.6109 163.203 29.7956 163.705 30.1648C164.217 30.5246 164.567 31.0595 164.756 31.7696C164.936 31.0595 165.286 30.5246 165.807 30.1648C166.328 29.7956 166.939 29.6109 167.639 29.6109Z" fill="#002E70"/>
<path d="M173.543 29.7672V37.4788H172.904V29.7672H173.543ZM174.452 27.3812L171.668 29.1423V28.6168L174.452 26.7564V27.3812Z" fill="#002E70"/>
<path d="M179.365 29.6109C180.284 29.6109 181.031 29.895 181.609 30.4631C182.187 31.0217 182.475 31.8549 182.475 32.9626V37.4788H181.85V33.0052C181.85 32.0868 181.618 31.3862 181.155 30.9033C180.691 30.411 180.061 30.1648 179.266 30.1648C178.433 30.1648 177.765 30.4299 177.263 30.9601C176.771 31.4903 176.525 32.2762 176.525 33.3177V37.4788H175.886V29.7672H176.525V31.4004C176.742 30.8228 177.102 30.3826 177.604 30.0796C178.115 29.7672 178.702 29.6109 179.365 29.6109Z" fill="#002E70"/>
<path d="M185.061 28.0487C184.909 28.0487 184.781 28.0014 184.677 27.9067C184.573 27.8026 184.521 27.6653 184.521 27.4949C184.521 27.3339 184.573 27.2014 184.677 27.0972C184.781 26.9931 184.909 26.941 185.061 26.941C185.212 26.941 185.34 26.9931 185.444 27.0972C185.548 27.2014 185.6 27.3339 185.6 27.4949C185.6 27.6653 185.548 27.8026 185.444 27.9067C185.34 28.0014 185.212 28.0487 185.061 28.0487ZM185.373 29.7672V37.4788H184.734V29.7672H185.373Z" fill="#002E70"/>
<path d="M191.11 37.5924C190.391 37.5924 189.742 37.4315 189.165 37.1096C188.587 36.7877 188.133 36.3285 187.801 35.732C187.479 35.126 187.318 34.4207 187.318 33.6159C187.318 32.8206 187.484 32.1247 187.815 31.5282C188.147 30.9223 188.601 30.4631 189.179 30.1506C189.766 29.8287 190.419 29.6678 191.139 29.6678C191.858 29.6678 192.507 29.8287 193.084 30.1506C193.662 30.4631 194.112 30.9175 194.433 31.514C194.765 32.1105 194.931 32.8111 194.931 33.6159C194.931 34.4207 194.765 35.126 194.433 35.732C194.102 36.3285 193.643 36.7877 193.056 37.1096C192.478 37.4315 191.83 37.5924 191.11 37.5924ZM191.11 37.0244C191.669 37.0244 192.19 36.9013 192.672 36.6551C193.165 36.3995 193.558 36.016 193.851 35.5047C194.145 34.9935 194.291 34.3639 194.291 33.6159C194.291 32.8774 194.145 32.2525 193.851 31.7412C193.558 31.23 193.169 30.8512 192.687 30.6051C192.204 30.3494 191.683 30.2216 191.124 30.2216C190.566 30.2216 190.045 30.3494 189.562 30.6051C189.089 30.8512 188.705 31.23 188.412 31.7412C188.118 32.2525 187.972 32.8774 187.972 33.6159C187.972 34.3639 188.114 34.9935 188.398 35.5047C188.691 36.016 189.075 36.3995 189.548 36.6551C190.031 36.9013 190.552 37.0244 191.11 37.0244Z" fill="#002E70"/>
<path d="M98.6789 3.98901H96.6992V38.2496H98.6789V3.98901Z" fill="#002E70"/>
<defs>
<linearGradient id="paint0_linear_237_59" x1="5.74805" y1="16.4874" x2="16.4898" y2="16.4874" gradientUnits="userSpaceOnUse">
<stop stop-color="white" stop-opacity="0"/>
<stop offset="1" stop-color="white" stop-opacity="0.5"/>
</linearGradient>
<radialGradient id="paint1_radial_237_59" cx="0" cy="0" r="1" gradientUnits="userSpaceOnUse" gradientTransform="translate(3.01959 13.8442) scale(3.29787 3.29787)">
<stop stop-color="white" stop-opacity="0.95"/>
<stop offset="1" stop-color="white" stop-opacity="0"/>
</radialGradient>
<radialGradient id="paint2_radial_237_59" cx="0" cy="0" r="1" gradientUnits="userSpaceOnUse" gradientTransform="translate(20.4502 3.90945) scale(3.29787 3.29787)">
<stop stop-color="white" stop-opacity="0.95"/>
<stop offset="1" stop-color="white" stop-opacity="0"/>
</radialGradient>
<radialGradient id="paint3_radial_237_59" cx="0" cy="0" r="1" gradientUnits="userSpaceOnUse" gradientTransform="translate(32.0674 17.4041) scale(3.29787)">
<stop stop-color="white" stop-opacity="0.95"/>
<stop offset="1" stop-color="white" stop-opacity="0"/>
</radialGradient>
<linearGradient id="paint4_linear_237_59" x1="5.74805" y1="21.7628" x2="16.4898" y2="21.7628" gradientUnits="userSpaceOnUse">
<stop stop-color="white" stop-opacity="0"/>
<stop offset="1" stop-color="white" stop-opacity="0.5"/>
</linearGradient>
<radialGradient id="paint5_radial_237_59" cx="0" cy="0" r="1" gradientUnits="userSpaceOnUse" gradientTransform="translate(7.62404 14.7163) scale(3.29787)">
<stop stop-color="white" stop-opacity="0.95"/>
<stop offset="1" stop-color="white" stop-opacity="0"/>
</radialGradient>
<radialGradient id="paint6_radial_237_59" cx="0" cy="0" r="1" gradientUnits="userSpaceOnUse" gradientTransform="translate(29.7815 19.069) scale(3.29787)">
<stop stop-color="white" stop-opacity="0.8"/>
<stop offset="1" stop-color="white" stop-opacity="0"/>
</radialGradient>
<radialGradient id="paint7_radial_237_59" cx="0" cy="0" r="1" gradientUnits="userSpaceOnUse" gradientTransform="translate(30.8643 23.2991) scale(3.29787 3.29787)">
<stop stop-color="white" stop-opacity="0.95"/>
<stop offset="1" stop-color="white" stop-opacity="0"/>
</radialGradient>
<linearGradient id="paint8_linear_237_59" x1="5.74805" y1="27.0377" x2="16.4898" y2="27.0377" gradientUnits="userSpaceOnUse">
<stop stop-color="white" stop-opacity="0"/>
<stop offset="1" stop-color="white" stop-opacity="0.5"/>
</linearGradient>
<radialGradient id="paint9_radial_237_59" cx="0" cy="0" r="1" gradientUnits="userSpaceOnUse" gradientTransform="translate(5.27759 22.3833) scale(3.29787)">
<stop stop-color="white" stop-opacity="0.95"/>
<stop offset="1" stop-color="white" stop-opacity="0"/>
</radialGradient>
<radialGradient id="paint10_radial_237_59" cx="0" cy="0" r="1" gradientUnits="userSpaceOnUse" gradientTransform="translate(24.2256 34.7654) scale(3.29787)">
<stop stop-color="white" stop-opacity="0.95"/>
<stop offset="1" stop-color="white" stop-opacity="0"/>
</radialGradient>
</defs>
</svg>
