<svg width="307" height="69" viewBox="0 0 307 69" fill="none" xmlns="http://www.w3.org/2000/svg">
<g opacity="0.85">
<path d="M63.6699 6.7124H64.6543L76.539 21.2717V8.41023C76.539 7.37246 77.1075 6.7124 77.9926 6.7124H79.37V27.7768H78.3627L66.4971 13.2137V26.0752C66.4971 27.1129 65.9324 27.773 65.0702 27.773H63.6699V6.7124Z" fill="#002E70"/>
<path d="M82.5117 17.2427C82.5117 11.2297 86.327 6.28125 91.7906 6.28125C97.2541 6.28125 101.115 11.2412 101.115 17.2427C101.115 23.2442 97.277 28.2079 91.7906 28.2079C86.3042 28.2079 82.5117 23.2861 82.5117 17.2427ZM91.7906 25.3579C95.5067 25.3579 98.2766 21.6761 98.2766 17.2427C98.2766 12.897 95.4953 9.12748 91.7906 9.12748C88.0859 9.12748 85.3427 12.8703 85.3427 17.2427C85.3427 21.615 88.0897 25.3579 91.7906 25.3579Z" fill="#002E70"/>
<path d="M101.336 6.71242H103.35C103.719 6.71066 104.078 6.83094 104.372 7.05454C104.665 7.27814 104.876 7.59248 104.972 7.94858L110.02 21.6456L115.163 7.94858C115.257 7.59594 115.465 7.28402 115.753 7.06071C116.042 6.8374 116.396 6.71504 116.761 6.71242H118.707L110.435 27.7768H109.6L101.336 6.71242Z" fill="#002E70"/>
<path d="M125.059 6.7124H125.948L134.906 27.7768H132.888C132.535 27.7751 132.192 27.6641 131.905 27.4592C131.618 27.2542 131.401 26.9653 131.285 26.6322L130.141 23.786H120.9L119.721 26.6322C119.607 26.9668 119.392 27.2573 119.104 27.4627C118.817 27.6681 118.472 27.7779 118.119 27.7768H116.127L125.059 6.7124ZM129.221 21.3022L125.501 12.0348L121.812 21.3022H129.221Z" fill="#002E70"/>
</g>
<path d="M62.0586 36.8801H74.7331V38.0591C74.7331 39.0663 74.2409 39.6424 73.3558 39.6424H64.8896V46.1742H72.6423V47.3188C72.6423 48.3528 72.1501 48.9289 71.265 48.9289H64.8896V55.2013H73.3291C74.1913 55.2013 74.7331 55.8652 74.7331 56.8419V57.9636H62.0586V36.8801Z" fill="#002E70"/>
<path d="M79.1621 36.8801H80.6119C81.4513 36.8801 82.016 37.5135 82.016 38.5207V55.1822H89.8183C90.6539 55.1822 91.2224 55.8461 91.2224 56.8228V57.9445H79.1621V36.8801Z" fill="#002E70"/>
<path d="M95.4785 56.1895V36.8801H96.9054C97.7448 36.8801 98.3095 37.5135 98.3095 38.5207V57.9445H96.8826C95.9974 57.9445 95.4785 57.3112 95.4785 56.1895Z" fill="#002E70"/>
<path d="M107.51 39.6424H102.203V38.5207C102.203 37.5135 102.745 36.8801 103.607 36.8801H115.713V38.0018C115.713 38.9824 115.149 39.6424 114.313 39.6424H110.341V56.3077C110.341 57.3112 109.777 57.9445 108.941 57.9445H107.51V39.6424Z" fill="#002E70"/>
<path d="M119.619 36.8801H132.294V38.0591C132.294 39.0663 131.801 39.6424 130.916 39.6424H122.45V46.1742H130.203V47.3188C130.203 48.3528 129.711 48.9289 128.822 48.9289H122.45V55.2013H130.89C131.752 55.2013 132.294 55.8652 132.294 56.8419V57.9636H119.619V36.8801Z" fill="#002E70"/>
<path opacity="0.85" d="M25.9672 0.000105845L0.00585938 25.9614L25.9672 51.9227L51.9285 25.9614L25.9672 0.000105845Z" fill="#1F62B5"/>
<path fill-rule="evenodd" clip-rule="evenodd" d="M9.05469 35.0106V16.9107L25.968 0.0012207V51.9239L9.05469 35.0106Z" fill="url(#paint0_linear_836_2)"/>
<mask id="mask0_836_2" style="mask-type:luminance" maskUnits="userSpaceOnUse" x="0" y="0" width="52" height="52">
<path d="M0 25.9606L25.9633 0.0163574L51.9075 25.9606L25.9633 51.9047L0.0190778 25.9606H0ZM1.10644 25.9606L25.9595 50.8174L50.8163 25.9606L25.9633 1.10372L1.10644 25.9606Z" fill="white"/>
</mask>
<g mask="url(#mask0_836_2)">
<path opacity="0.5" d="M51.9227 0.0012207H0V51.9239H51.9227V0.0012207Z" fill="#002E70"/>
</g>
<mask id="mask1_836_2" style="mask-type:luminance" maskUnits="userSpaceOnUse" x="0" y="0" width="52" height="52">
<path d="M0 25.9606L25.9633 0.0163574L51.9075 25.9606L25.9633 51.9047L0.0190778 25.9606H0ZM1.10644 25.9606L25.9595 50.8174L50.8163 25.9606L25.9633 1.10372L1.10644 25.9606Z" fill="white"/>
</mask>
<g mask="url(#mask1_836_2)">
<path fill-rule="evenodd" clip-rule="evenodd" d="M4.75143 26.9871C5.77893 26.9886 6.78377 26.6853 7.63879 26.1154C8.4938 25.5456 9.16054 24.7349 9.55462 23.786C9.9487 22.8371 10.0524 21.7926 9.85259 20.7847C9.65278 19.7768 9.15845 18.8509 8.43217 18.1241C7.70589 17.3972 6.7803 16.9022 5.77257 16.7017C4.76483 16.5011 3.72025 16.6041 2.77104 16.9974C1.82183 17.3908 1.01066 18.057 0.440204 18.9116C-0.130251 19.7661 -0.434346 20.7708 -0.433592 21.7983C-0.429571 23.1725 0.117875 24.4894 1.08928 25.4615C2.06068 26.4337 3.37716 26.9821 4.75143 26.9871Z" fill="url(#paint1_radial_836_2)"/>
<path fill-rule="evenodd" clip-rule="evenodd" d="M32.1946 11.348C33.2216 11.348 34.2256 11.0434 35.0795 10.4728C35.9334 9.90226 36.599 9.09128 36.992 8.14245C37.385 7.19362 37.4878 6.14955 37.2875 5.14227C37.0871 4.135 36.5926 3.20976 35.8664 2.48355C35.1402 1.75735 34.2149 1.26278 33.2076 1.06242C32.2004 0.862063 31.1563 0.964902 30.2075 1.35792C29.2586 1.75094 28.4477 2.4165 27.8771 3.27043C27.3065 4.12435 27.002 5.1283 27.002 6.15531C27.004 7.53187 27.5517 8.85146 28.5251 9.82483C29.4984 10.7982 30.818 11.3459 32.1946 11.348Z" fill="url(#paint2_radial_836_2)"/>
<path fill-rule="evenodd" clip-rule="evenodd" d="M50.4876 32.5955C51.5146 32.5955 52.5185 32.291 53.3725 31.7204C54.2264 31.1498 54.8919 30.3388 55.285 29.39C55.678 28.4412 55.7808 27.3971 55.5805 26.3898C55.3801 25.3826 54.8855 24.4573 54.1593 23.7311C53.4331 23.0049 52.5079 22.5103 51.5006 22.31C50.4933 22.1096 49.4493 22.2125 48.5004 22.6055C47.5516 22.9985 46.7406 23.6641 46.17 24.518C45.5995 25.3719 45.2949 26.3759 45.2949 27.4029C45.2979 28.7791 45.846 30.0981 46.8192 31.0713C47.7923 32.0444 49.1113 32.5925 50.4876 32.5955Z" fill="url(#paint3_radial_836_2)"/>
</g>
<path opacity="0.85" d="M25.9672 8.30479L0.00585938 34.2661L25.9672 60.2274L51.9285 34.2661L25.9672 8.30479Z" fill="#37ACD5"/>
<path fill-rule="evenodd" clip-rule="evenodd" d="M9.05469 43.3165V25.2166L25.968 8.30713V60.226L9.05469 43.3165Z" fill="url(#paint4_linear_836_2)"/>
<mask id="mask2_836_2" style="mask-type:luminance" maskUnits="userSpaceOnUse" x="0" y="8" width="52" height="53">
<path d="M0 34.2626L25.9633 8.31836L51.9075 34.2626L25.9633 60.2258L0.0190778 34.2626H0ZM1.10644 34.2626L25.9595 59.1194L50.8163 34.2626L25.9633 9.40955L1.10644 34.2626Z" fill="white"/>
</mask>
<g mask="url(#mask2_836_2)">
<path opacity="0.5" d="M51.9227 8.30713H0V60.2299H51.9227V8.30713Z" fill="#002E70"/>
</g>
<mask id="mask3_836_2" style="mask-type:luminance" maskUnits="userSpaceOnUse" x="0" y="8" width="52" height="53">
<path d="M0 34.2626L25.9633 8.31836L51.9075 34.2626L25.9633 60.2258L0.0190778 34.2626H0ZM1.10644 34.2626L25.9595 59.1194L50.8163 34.2626L25.9633 9.40955L1.10644 34.2626Z" fill="white"/>
</mask>
<g mask="url(#mask3_836_2)">
<path fill-rule="evenodd" clip-rule="evenodd" d="M12.0071 28.3643C13.0341 28.3643 14.0381 28.0598 14.892 27.4892C15.7459 26.9186 16.4115 26.1076 16.8045 25.1588C17.1975 24.21 17.3003 23.1659 17.1 22.1586C16.8996 21.1514 16.4051 20.2261 15.6789 19.4999C14.9527 18.7737 14.0274 18.2791 13.0201 18.0788C12.0129 17.8784 10.9688 17.9813 10.02 18.3743C9.07113 18.7673 8.26015 19.4328 7.68957 20.2868C7.119 21.1407 6.81445 22.1447 6.81445 23.1717C6.81748 24.5479 7.36553 25.8669 8.33869 26.8401C9.31184 27.8132 10.6309 28.3613 12.0071 28.3643Z" fill="url(#paint5_radial_836_2)"/>
<path d="M52.0148 30.8607C52.4743 28.0299 50.552 25.3626 47.7212 24.9031C44.8904 24.4436 42.2231 26.3659 41.7636 29.1967C41.3041 32.0275 43.2264 34.6948 46.0572 35.1543C48.888 35.6138 51.5553 33.6915 52.0148 30.8607Z" fill="url(#paint6_radial_836_2)"/>
<path fill-rule="evenodd" clip-rule="evenodd" d="M48.6009 41.8782C49.6279 41.8782 50.6318 41.5737 51.4857 41.0031C52.3397 40.4325 53.0052 39.6215 53.3982 38.6727C53.7913 37.7239 53.8941 36.6798 53.6937 35.6725C53.4934 34.6653 52.9988 33.74 52.2726 33.0138C51.5464 32.2876 50.6212 31.7931 49.6139 31.5927C48.6066 31.3923 47.5625 31.4952 46.6137 31.8882C45.6649 32.2812 44.8539 32.9468 44.2833 33.8007C43.7127 34.6546 43.4082 35.6586 43.4082 36.6856C43.4112 38.0618 43.9593 39.3808 44.9324 40.354C45.9056 41.3272 47.2246 41.8752 48.6009 41.8782Z" fill="url(#paint7_radial_836_2)"/>
</g>
<path opacity="0.85" d="M25.9672 16.6085L0.00585938 42.5698L25.9672 68.5311L51.9285 42.5698L25.9672 16.6085Z" fill="#49EBDD"/>
<path fill-rule="evenodd" clip-rule="evenodd" d="M9.05469 51.6185V33.5225L25.968 16.6091V68.5319L9.05469 51.6185Z" fill="url(#paint8_linear_836_2)"/>
<mask id="mask4_836_2" style="mask-type:luminance" maskUnits="userSpaceOnUse" x="0" y="16" width="52" height="53">
<path d="M0 42.5685L25.9633 16.6243L51.9075 42.5685L25.9633 68.5126L0.0190778 42.5685H0ZM1.10644 42.5685L25.9595 67.4253L50.8163 42.5685L25.9633 17.7116L1.10644 42.5685Z" fill="white"/>
</mask>
<g mask="url(#mask4_836_2)">
<path opacity="0.5" d="M51.9227 16.6089H0V68.5316H51.9227V16.6089Z" fill="#002E70"/>
</g>
<mask id="mask5_836_2" style="mask-type:luminance" maskUnits="userSpaceOnUse" x="0" y="16" width="52" height="53">
<path d="M0 42.5685L25.9633 16.6243L51.9075 42.5685L25.9633 68.5126L0.0190778 42.5685H0ZM1.10644 42.5685L25.9595 67.4253L50.8163 42.5685L25.9633 17.7116L1.10644 42.5685Z" fill="white"/>
</mask>
<g mask="url(#mask5_836_2)">
<path d="M12.7185 37.9739C14.2263 35.5345 13.471 32.3346 11.0316 30.8268C8.59213 29.319 5.39224 30.0742 3.88443 32.5136C2.37662 34.9531 3.13187 38.153 5.57132 39.6608C8.01077 41.1686 11.2107 40.4134 12.7185 37.9739Z" fill="url(#paint9_radial_836_2)"/>
<path fill-rule="evenodd" clip-rule="evenodd" d="M38.1477 59.9319C39.1747 59.9319 40.1787 59.6274 41.0326 59.0568C41.8865 58.4862 42.5521 57.6753 42.9451 56.7264C43.3381 55.7776 43.441 54.7335 43.2406 53.7262C43.0403 52.719 42.5457 51.7937 41.8195 51.0675C41.0933 50.3413 40.168 49.8468 39.1608 49.6464C38.1535 49.4461 37.1094 49.5489 36.1606 49.9419C35.2118 50.3349 34.4008 51.0005 33.8302 51.8544C33.2596 52.7083 32.9551 53.7123 32.9551 54.7393C32.9581 56.1155 33.5062 57.4346 34.4793 58.4077C35.4525 59.3809 36.7715 59.9289 38.1477 59.9319Z" fill="url(#paint10_radial_836_2)"/>
</g>
<path d="M175.029 17.3275V23.8795H181.29V24.7292H175.029V31.3259H181.961V32.1756H174.023V16.4778H181.961V17.3275H175.029Z" fill="#002E70"/>
<path d="M189.054 32.3545C187.698 32.3545 186.587 32.0564 185.722 31.4601C184.873 30.8638 184.396 30.014 184.291 28.9108H185.32C185.394 29.701 185.752 30.3271 186.393 30.7892C187.049 31.2514 187.936 31.4824 189.054 31.4824C189.979 31.4824 190.709 31.2514 191.246 30.7892C191.797 30.3122 192.073 29.7308 192.073 29.045C192.073 28.568 191.924 28.1804 191.626 27.8822C191.343 27.5691 190.985 27.3306 190.553 27.1666C190.12 27.0026 189.531 26.8238 188.786 26.63C187.892 26.3914 187.168 26.1604 186.617 25.9367C186.065 25.6982 185.596 25.3479 185.208 24.8858C184.821 24.4236 184.627 23.8049 184.627 23.0297C184.627 22.4632 184.798 21.9415 185.141 21.4644C185.484 20.9725 185.961 20.5849 186.572 20.3016C187.183 20.0184 187.877 19.8768 188.652 19.8768C189.919 19.8768 190.94 20.1973 191.715 20.8383C192.505 21.4644 192.93 22.3365 192.99 23.4546H191.984C191.939 22.6496 191.626 21.9936 191.045 21.4868C190.463 20.9799 189.658 20.7265 188.629 20.7265C187.765 20.7265 187.049 20.9501 186.483 21.3973C185.916 21.8446 185.633 22.3887 185.633 23.0297C185.633 23.5962 185.79 24.0584 186.103 24.4162C186.431 24.759 186.826 25.0274 187.288 25.2212C187.765 25.4001 188.391 25.5939 189.166 25.8026C190.016 26.0262 190.694 26.2498 191.201 26.4734C191.723 26.6821 192.163 26.9952 192.52 27.4126C192.878 27.8151 193.057 28.3593 193.057 29.045C193.057 29.6711 192.886 30.2376 192.543 30.7445C192.2 31.2514 191.723 31.6464 191.112 31.9297C190.5 32.2129 189.815 32.3545 189.054 32.3545Z" fill="#002E70"/>
<path d="M195.496 26.0933C195.496 24.841 195.742 23.7453 196.234 22.8061C196.741 21.8669 197.434 21.1439 198.314 20.637C199.208 20.1302 200.222 19.8768 201.355 19.8768C202.637 19.8768 203.725 20.1898 204.62 20.8159C205.529 21.4421 206.155 22.2396 206.498 23.2086V20.0333H207.504V37.9002H206.498V29.0003C206.155 29.9693 205.529 30.7743 204.62 31.4153C203.71 32.0415 202.614 32.3545 201.332 32.3545C200.214 32.3545 199.208 32.1011 198.314 31.5942C197.434 31.0725 196.741 30.342 196.234 29.4028C195.742 28.4487 195.496 27.3455 195.496 26.0933ZM206.498 26.0933C206.498 25.0348 206.274 24.1031 205.827 23.2981C205.395 22.4782 204.798 21.852 204.038 21.4197C203.278 20.9725 202.428 20.7489 201.489 20.7489C200.505 20.7489 199.64 20.965 198.895 21.3973C198.15 21.8148 197.568 22.426 197.151 23.231C196.733 24.036 196.525 24.9901 196.525 26.0933C196.525 27.1964 196.733 28.1505 197.151 28.9556C197.568 29.7606 198.15 30.3793 198.895 30.8116C199.655 31.2439 200.52 31.4601 201.489 31.4601C202.428 31.4601 203.278 31.2439 204.038 30.8116C204.813 30.3643 205.417 29.7382 205.849 28.9332C206.282 28.1133 206.498 27.1666 206.498 26.0933Z" fill="#002E70"/>
<path d="M221.432 20.0333V32.1756H220.426V29.537C220.083 30.4612 219.509 31.1694 218.704 31.6613C217.914 32.1384 217.005 32.3769 215.976 32.3769C214.53 32.3769 213.345 31.9371 212.42 31.0576C211.511 30.1631 211.056 28.8438 211.056 27.0996V20.0333H212.04V27.0325C212.04 28.4785 212.406 29.5891 213.136 30.3643C213.867 31.1246 214.858 31.5048 216.11 31.5048C217.422 31.5048 218.466 31.0874 219.241 30.2525C220.031 29.4177 220.426 28.1804 220.426 26.5405V20.0333H221.432Z" fill="#002E70"/>
<path d="M224.474 26.0933C224.474 24.841 224.72 23.7453 225.212 22.8061C225.719 21.8669 226.412 21.1439 227.292 20.637C228.186 20.1302 229.2 19.8768 230.333 19.8768C231.615 19.8768 232.703 20.1898 233.598 20.8159C234.492 21.4421 235.119 22.2396 235.476 23.2086V20.0333H236.483V32.1756H235.476V28.9779C235.119 29.9618 234.485 30.7743 233.576 31.4153C232.681 32.0415 231.6 32.3545 230.333 32.3545C229.2 32.3545 228.186 32.1011 227.292 31.5942C226.412 31.0725 225.719 30.342 225.212 29.4028C224.72 28.4487 224.474 27.3455 224.474 26.0933ZM235.476 26.0933C235.476 25.0348 235.253 24.1031 234.805 23.2981C234.373 22.4782 233.777 21.852 233.017 21.4197C232.256 20.9725 231.407 20.7489 230.467 20.7489C229.483 20.7489 228.619 20.965 227.873 21.3973C227.128 21.8148 226.547 22.426 226.129 23.231C225.712 24.036 225.503 24.9901 225.503 26.0933C225.503 27.1964 225.712 28.1505 226.129 28.9556C226.547 29.7606 227.128 30.3793 227.873 30.8116C228.634 31.2439 229.498 31.4601 230.467 31.4601C231.407 31.4601 232.256 31.2439 233.017 30.8116C233.792 30.3643 234.396 29.7382 234.828 28.9332C235.26 28.1133 235.476 27.1666 235.476 26.0933Z" fill="#002E70"/>
<path d="M239.956 26.0932C239.956 24.841 240.202 23.7452 240.694 22.8061C241.201 21.8669 241.894 21.1438 242.773 20.637C243.668 20.1301 244.682 19.8767 245.815 19.8767C247.052 19.8767 248.125 20.1897 249.035 20.8159C249.944 21.4271 250.585 22.2247 250.958 23.2086V15.628H251.964V32.1756H250.958V28.9555C250.6 29.9543 249.974 30.7742 249.079 31.4153C248.185 32.0414 247.097 32.3545 245.815 32.3545C244.682 32.3545 243.668 32.101 242.773 31.5942C241.894 31.0724 241.201 30.3419 240.694 29.4027C240.202 28.4486 239.956 27.3455 239.956 26.0932ZM250.958 26.0932C250.958 25.0348 250.734 24.103 250.287 23.298C249.855 22.4781 249.258 21.852 248.498 21.4196C247.738 20.9724 246.888 20.7488 245.949 20.7488C244.965 20.7488 244.1 20.9649 243.355 21.3973C242.609 21.8147 242.028 22.4259 241.611 23.2309C241.193 24.0359 240.984 24.99 240.984 26.0932C240.984 27.1964 241.193 28.1505 241.611 28.9555C242.028 29.7605 242.609 30.3792 243.355 30.8115C244.115 31.2438 244.98 31.46 245.949 31.46C246.888 31.46 247.738 31.2438 248.498 30.8115C249.273 30.3643 249.877 29.7382 250.309 28.9331C250.742 28.1132 250.958 27.1666 250.958 26.0932Z" fill="#002E70"/>
<path d="M256.634 22.5377C256.932 21.6432 257.462 20.9649 258.222 20.5028C258.982 20.0258 259.951 19.7872 261.129 19.7872V20.8382H260.794C259.601 20.8382 258.61 21.1811 257.819 21.8669C257.029 22.5377 256.634 23.6409 256.634 25.1764V32.1756H255.628V20.0332H256.634V22.5377Z" fill="#002E70"/>
<path d="M263.96 17.3275C263.722 17.3275 263.52 17.2529 263.356 17.1038C263.192 16.9399 263.11 16.7237 263.11 16.4554C263.11 16.2019 263.192 15.9932 263.356 15.8292C263.52 15.6652 263.722 15.5833 263.96 15.5833C264.199 15.5833 264.4 15.6652 264.564 15.8292C264.728 15.9932 264.81 16.2019 264.81 16.4554C264.81 16.7237 264.728 16.9399 264.564 17.1038C264.4 17.2529 264.199 17.3275 263.96 17.3275ZM264.452 20.0332V32.1756H263.446V20.0332H264.452Z" fill="#002E70"/>
<path d="M267.515 26.0932C267.515 24.841 267.761 23.7452 268.253 22.8061C268.76 21.8669 269.453 21.1438 270.332 20.637C271.227 20.1301 272.241 19.8767 273.374 19.8767C274.656 19.8767 275.744 20.1897 276.638 20.8159C277.533 21.442 278.159 22.2396 278.517 23.2086V20.0332H279.523V32.1756H278.517V28.9779C278.159 29.9618 277.525 30.7742 276.616 31.4153C275.721 32.0414 274.641 32.3545 273.374 32.3545C272.241 32.3545 271.227 32.101 270.332 31.5942C269.453 31.0724 268.76 30.3419 268.253 29.4027C267.761 28.4486 267.515 27.3455 267.515 26.0932ZM278.517 26.0932C278.517 25.0348 278.293 24.103 277.846 23.298C277.414 22.4781 276.817 21.852 276.057 21.4196C275.297 20.9724 274.447 20.7488 273.508 20.7488C272.524 20.7488 271.659 20.9649 270.914 21.3973C270.168 21.8147 269.587 22.4259 269.17 23.2309C268.752 24.0359 268.543 24.99 268.543 26.0932C268.543 27.1964 268.752 28.1505 269.17 28.9555C269.587 29.7605 270.168 30.3792 270.914 30.8115C271.674 31.2438 272.539 31.46 273.508 31.46C274.447 31.46 275.297 31.2438 276.057 30.8115C276.832 30.3643 277.436 29.7382 277.868 28.9331C278.301 28.1132 278.517 27.1666 278.517 26.0932Z" fill="#002E70"/>
<path d="M287.234 32.3545C285.878 32.3545 284.767 32.0563 283.903 31.46C283.053 30.8637 282.576 30.0139 282.471 28.9108H283.5C283.575 29.7009 283.932 30.327 284.573 30.7891C285.229 31.2513 286.116 31.4824 287.234 31.4824C288.159 31.4824 288.889 31.2513 289.426 30.7891C289.977 30.3121 290.253 29.7307 290.253 29.0449C290.253 28.5679 290.104 28.1803 289.806 27.8821C289.523 27.5691 289.165 27.3306 288.733 27.1666C288.3 27.0026 287.711 26.8237 286.966 26.6299C286.072 26.3914 285.349 26.1603 284.797 25.9367C284.245 25.6982 283.776 25.3478 283.388 24.8857C283.001 24.4235 282.807 23.8049 282.807 23.0297C282.807 22.4632 282.978 21.9414 283.321 21.4644C283.664 20.9724 284.141 20.5848 284.752 20.3016C285.363 20.0183 286.057 19.8767 286.832 19.8767C288.099 19.8767 289.12 20.1972 289.895 20.8382C290.686 21.4644 291.11 22.3365 291.17 23.4545H290.164C290.119 22.6495 289.806 21.9936 289.225 21.4867C288.643 20.9799 287.838 20.7264 286.81 20.7264C285.945 20.7264 285.229 20.95 284.663 21.3973C284.096 21.8445 283.813 22.3886 283.813 23.0297C283.813 23.5962 283.97 24.0583 284.283 24.4161C284.611 24.759 285.006 25.0273 285.468 25.2211C285.945 25.4 286.571 25.5938 287.346 25.8025C288.196 26.0261 288.874 26.2497 289.381 26.4734C289.903 26.6821 290.343 26.9951 290.7 27.4125C291.058 27.8151 291.237 28.3592 291.237 29.0449C291.237 29.6711 291.066 30.2376 290.723 30.7444C290.38 31.2513 289.903 31.6463 289.292 31.9296C288.68 32.2128 287.995 32.3545 287.234 32.3545Z" fill="#002E70"/>
<path d="M184.957 52.1252C184.957 52.6619 184.943 53.0644 184.913 53.3328H174.425C174.455 54.421 174.693 55.3379 175.141 56.0832C175.588 56.8286 176.177 57.3877 176.907 57.7604C177.638 58.1331 178.435 58.3194 179.3 58.3194C180.493 58.3194 181.491 58.0287 182.296 57.4473C183.101 56.851 183.608 56.046 183.817 55.0323H184.868C184.629 56.2696 184.018 57.2759 183.034 58.0511C182.05 58.8114 180.806 59.1915 179.3 59.1915C178.167 59.1915 177.153 58.9381 176.259 58.4312C175.364 57.9244 174.664 57.2013 174.157 56.2621C173.65 55.308 173.396 54.1974 173.396 52.9303C173.396 51.6631 173.642 50.5599 174.134 49.6207C174.641 48.6816 175.342 47.966 176.236 47.474C177.131 46.9672 178.152 46.7137 179.3 46.7137C180.463 46.7137 181.469 46.9672 182.319 47.474C183.183 47.966 183.839 48.6294 184.287 49.4642C184.734 50.2841 184.957 51.1711 184.957 52.1252ZM183.951 52.5054C183.996 51.432 183.802 50.5227 183.37 49.7773C182.952 49.0319 182.378 48.4803 181.648 48.1225C180.917 47.7498 180.127 47.5635 179.278 47.5635C178.428 47.5635 177.638 47.7498 176.907 48.1225C176.192 48.4803 175.603 49.0319 175.141 49.7773C174.693 50.5227 174.455 51.432 174.425 52.5054H183.951Z" fill="#002E70"/>
<path d="M202.355 46.6243C203.741 46.6243 204.874 47.0715 205.754 47.966C206.633 48.8455 207.073 50.1574 207.073 51.9016V59.0126H206.089V51.9687C206.089 50.5227 205.739 49.4195 205.038 48.6592C204.352 47.884 203.406 47.4964 202.198 47.4964C200.946 47.4964 199.94 47.9287 199.179 48.7934C198.419 49.658 198.039 50.9103 198.039 52.5501V59.0126H197.055V51.9687C197.055 50.5227 196.705 49.4195 196.004 48.6592C195.318 47.884 194.372 47.4964 193.164 47.4964C191.912 47.4964 190.906 47.9287 190.145 48.7934C189.385 49.658 189.005 50.9103 189.005 52.5501V59.0126H187.999V46.8703H189.005V49.5089C189.348 48.5548 189.899 47.8393 190.66 47.3622C191.435 46.8703 192.322 46.6243 193.321 46.6243C194.424 46.6243 195.37 46.915 196.161 47.4964C196.966 48.0629 197.517 48.9052 197.815 50.0232C198.099 48.9052 198.65 48.0629 199.47 47.4964C200.29 46.915 201.252 46.6243 202.355 46.6243Z" fill="#002E70"/>
<path d="M225.855 54.9875H218.409L216.91 59.0126H215.815L221.584 43.6726H222.702L228.449 59.0126H227.353L225.855 54.9875ZM225.542 54.1378L222.143 44.9919L218.722 54.1378H225.542Z" fill="#002E70"/>
<path d="M231.981 42.465V59.0126H230.975V42.465H231.981Z" fill="#002E70"/>
<path d="M245.934 46.8703V59.0126H244.928V56.3739C244.585 57.2982 244.011 58.0063 243.206 58.4983C242.416 58.9753 241.506 59.2139 240.478 59.2139C239.032 59.2139 237.846 58.7741 236.922 57.8945C236.013 57.0001 235.558 55.6807 235.558 53.9365V46.8703H236.542V53.8694C236.542 55.3155 236.907 56.4261 237.638 57.2013C238.368 57.9616 239.36 58.3418 240.612 58.3418C241.924 58.3418 242.967 57.9244 243.742 57.0895C244.533 56.2547 244.928 55.0173 244.928 53.3775V46.8703H245.934Z" fill="#002E70"/>
<path d="M263.958 46.6243C265.345 46.6243 266.478 47.0715 267.357 47.966C268.237 48.8455 268.677 50.1574 268.677 51.9016V59.0126H267.693V51.9687C267.693 50.5227 267.342 49.4195 266.642 48.6592C265.956 47.884 265.009 47.4964 263.802 47.4964C262.55 47.4964 261.543 47.9287 260.783 48.7934C260.023 49.658 259.643 50.9103 259.643 52.5501V59.0126H258.659V51.9687C258.659 50.5227 258.308 49.4195 257.608 48.6592C256.922 47.884 255.975 47.4964 254.768 47.4964C253.516 47.4964 252.509 47.9287 251.749 48.7934C250.989 49.658 250.608 50.9103 250.608 52.5501V59.0126H249.602V46.8703H250.608V49.5089C250.951 48.5548 251.503 47.8393 252.263 47.3622C253.038 46.8703 253.925 46.6243 254.924 46.6243C256.027 46.6243 256.974 46.915 257.764 47.4964C258.569 48.0629 259.121 48.9052 259.419 50.0232C259.702 48.9052 260.254 48.0629 261.074 47.4964C261.894 46.915 262.855 46.6243 263.958 46.6243Z" fill="#002E70"/>
<path d="M273.254 46.8703V59.0126H272.248V46.8703H273.254ZM274.685 43.1135L270.302 45.8864V45.059L274.685 42.1296V43.1135Z" fill="#002E70"/>
<path d="M282.421 46.6243C283.867 46.6243 285.045 47.0715 285.955 47.966C286.864 48.8455 287.319 50.1574 287.319 51.9016V59.0126H286.335V51.9687C286.335 50.5227 285.969 49.4195 285.239 48.6592C284.508 47.884 283.517 47.4964 282.265 47.4964C280.953 47.4964 279.902 47.9138 279.112 48.7486C278.337 49.5835 277.949 50.8208 277.949 52.4607V59.0126H276.943V46.8703H277.949V49.4418C278.292 48.5325 278.858 47.8393 279.649 47.3622C280.454 46.8703 281.378 46.6243 282.421 46.6243Z" fill="#002E70"/>
<path d="M291.389 44.1645C291.151 44.1645 290.95 44.09 290.786 43.9409C290.622 43.7769 290.54 43.5607 290.54 43.2924C290.54 43.039 290.622 42.8303 290.786 42.6663C290.95 42.5023 291.151 42.4203 291.389 42.4203C291.628 42.4203 291.829 42.5023 291.993 42.6663C292.157 42.8303 292.239 43.039 292.239 43.2924C292.239 43.5607 292.157 43.7769 291.993 43.9409C291.829 44.09 291.628 44.1645 291.389 44.1645ZM291.881 46.8703V59.0126H290.875V46.8703H291.881Z" fill="#002E70"/>
<path d="M300.915 59.1915C299.782 59.1915 298.76 58.9381 297.851 58.4312C296.942 57.9244 296.226 57.2013 295.704 56.2621C295.197 55.308 294.944 54.1974 294.944 52.9303C294.944 51.678 295.205 50.5823 295.727 49.6431C296.248 48.689 296.964 47.966 297.873 47.474C298.798 46.9672 299.826 46.7137 300.959 46.7137C302.092 46.7137 303.113 46.9672 304.023 47.474C304.932 47.966 305.64 48.6816 306.147 49.6207C306.669 50.5599 306.93 51.6631 306.93 52.9303C306.93 54.1974 306.669 55.308 306.147 56.2621C305.625 57.2013 304.902 57.9244 303.978 58.4312C303.069 58.9381 302.048 59.1915 300.915 59.1915ZM300.915 58.297C301.794 58.297 302.614 58.1032 303.374 57.7156C304.15 57.3131 304.768 56.7094 305.23 55.9044C305.693 55.0993 305.924 54.108 305.924 52.9303C305.924 51.7675 305.693 50.7835 305.23 49.9785C304.768 49.1735 304.157 48.5772 303.397 48.1896C302.636 47.7871 301.817 47.5858 300.937 47.5858C300.057 47.5858 299.237 47.7871 298.477 48.1896C297.732 48.5772 297.128 49.1735 296.666 49.9785C296.204 50.7835 295.973 51.7675 295.973 52.9303C295.973 54.108 296.196 55.0993 296.644 55.9044C297.106 56.7094 297.709 57.3131 298.455 57.7156C299.215 58.1032 300.035 58.297 300.915 58.297Z" fill="#002E70"/>
<path d="M155.379 6.28125H152.262V60.2261H155.379V6.28125Z" fill="#002E70"/>
<defs>
<linearGradient id="paint0_linear_836_2" x1="9.05469" y1="25.9607" x2="25.968" y2="25.9607" gradientUnits="userSpaceOnUse">
<stop stop-color="white" stop-opacity="0"/>
<stop offset="1" stop-color="white" stop-opacity="0.5"/>
</linearGradient>
<radialGradient id="paint1_radial_836_2" cx="0" cy="0" r="1" gradientUnits="userSpaceOnUse" gradientTransform="translate(4.75143 21.7983) scale(5.19265 5.19266)">
<stop stop-color="white" stop-opacity="0.95"/>
<stop offset="1" stop-color="white" stop-opacity="0"/>
</radialGradient>
<radialGradient id="paint2_radial_836_2" cx="0" cy="0" r="1" gradientUnits="userSpaceOnUse" gradientTransform="translate(32.1946 6.1553) scale(5.19265 5.19265)">
<stop stop-color="white" stop-opacity="0.95"/>
<stop offset="1" stop-color="white" stop-opacity="0"/>
</radialGradient>
<radialGradient id="paint3_radial_836_2" cx="0" cy="0" r="1" gradientUnits="userSpaceOnUse" gradientTransform="translate(50.4876 27.4029) scale(5.19265 5.19265)">
<stop stop-color="white" stop-opacity="0.95"/>
<stop offset="1" stop-color="white" stop-opacity="0"/>
</radialGradient>
<linearGradient id="paint4_linear_836_2" x1="9.05469" y1="34.2666" x2="25.968" y2="34.2666" gradientUnits="userSpaceOnUse">
<stop stop-color="white" stop-opacity="0"/>
<stop offset="1" stop-color="white" stop-opacity="0.5"/>
</linearGradient>
<radialGradient id="paint5_radial_836_2" cx="0" cy="0" r="1" gradientUnits="userSpaceOnUse" gradientTransform="translate(12.0071 23.1717) scale(5.19265 5.19265)">
<stop stop-color="white" stop-opacity="0.95"/>
<stop offset="1" stop-color="white" stop-opacity="0"/>
</radialGradient>
<radialGradient id="paint6_radial_836_2" cx="0" cy="0" r="1" gradientUnits="userSpaceOnUse" gradientTransform="translate(46.895 30.0251) scale(5.19265)">
<stop stop-color="white" stop-opacity="0.8"/>
<stop offset="1" stop-color="white" stop-opacity="0"/>
</radialGradient>
<radialGradient id="paint7_radial_836_2" cx="0" cy="0" r="1" gradientUnits="userSpaceOnUse" gradientTransform="translate(48.6009 36.6856) scale(5.19265 5.19265)">
<stop stop-color="white" stop-opacity="0.95"/>
<stop offset="1" stop-color="white" stop-opacity="0"/>
</radialGradient>
<linearGradient id="paint8_linear_836_2" x1="9.05469" y1="42.5724" x2="25.968" y2="42.5724" gradientUnits="userSpaceOnUse">
<stop stop-color="white" stop-opacity="0"/>
<stop offset="1" stop-color="white" stop-opacity="0.5"/>
</linearGradient>
<radialGradient id="paint9_radial_836_2" cx="0" cy="0" r="1" gradientUnits="userSpaceOnUse" gradientTransform="translate(8.31088 35.2431) scale(5.19265)">
<stop stop-color="white" stop-opacity="0.95"/>
<stop offset="1" stop-color="white" stop-opacity="0"/>
</radialGradient>
<radialGradient id="paint10_radial_836_2" cx="0" cy="0" r="1" gradientUnits="userSpaceOnUse" gradientTransform="translate(38.1477 54.7393) scale(5.19266)">
<stop stop-color="white" stop-opacity="0.95"/>
<stop offset="1" stop-color="white" stop-opacity="0"/>
</radialGradient>
</defs>
</svg>
